Coordinates
version=1
nRows=11
nColumns=63
inDegrees=yes

Units are S.I. units (second, meters, Newtons, ...)
If the header above contains a line with 'inDegrees', this indicates whether rotational values are in degrees (yes) or radians (no).

endheader
time	pelvis_tilt	pelvis_list	pelvis_rotation	pelvis_tx	pelvis_ty	pelvis_tz	hip_flexion_r	hip_adduction_r	hip_rotation_r	knee_angle_r	knee_angle_r_beta	ankle_angle_r	subtalar_angle_r	mtp_angle_r	hip_flexion_l	hip_adduction_l	hip_rotation_l	knee_angle_l	knee_angle_l_beta	ankle_angle_l	subtalar_angle_l	mtp_angle_l	L5_S1_Flex_Ext	L5_S1_Lat_Bending	L5_S1_axial_rotation	L4_L5_Flex_Ext	L4_L5_Lat_Bending	L4_L5_axial_rotation	L3_L4_Flex_Ext	L3_L4_Lat_Bending	L3_L4_axial_rotation	L2_L3_Flex_Ext	L2_L3_Lat_Bending	L2_L3_axial_rotation	L1_L2_Flex_Ext	L1_L2_Lat_Bending	L1_L2_axial_rotation	L1_T12_Flex_Ext	L1_T12_Lat_Bending	L1_T12_axial_rotation	Abs_r3	Abs_r2	Abs_r1	Abs_t1	Abs_t2	neck_flexion	neck_bending	neck_rotation	arm_flex_r	arm_add_r	arm_rot_r	elbow_flex_r	pro_sup_r	wrist_flex_r	wrist_dev_r	arm_flex_l	arm_add_l	arm_rot_l	elbow_flex_l	pro_sup_l	wrist_flex_l	wrist_dev_l
      4.14000000	     -0.25469863	     -1.24643658	     97.20064611	      0.18894279	      0.63065878	      0.71961571	      7.03681707	     -2.16572682	    -24.11237779	     13.37019675	      0.23335395	     18.56139809	     11.95245651	      0.00000000	     10.30881556	      1.35058891	     -5.27717373	     13.87984583	      0.24224901	     16.17776873	      1.74370960	      0.00000000	      0.12461588	     -0.05039869	     -0.58985998	      0.23142415	     -0.06703026	     -0.62672622	      0.20473143	     -0.12253938	     -0.62672622	      0.14242349	     -0.12253938	     -0.51612748	      0.11571831	     -0.10277301	     -0.47926123	      0.07120551	     -0.07806757	     -0.44239498	      0.89011878	     -0.57012009	     -3.28062423	      0.00000000	      0.00000000	     22.97558884	      2.36456709	     -3.39074662	      9.56219605	     -6.24070605	     46.39870735	     40.94245392	     61.82788617	     -2.71587511	      5.95893785	     11.28611229	     -6.60329056	     51.51864168	     42.10831834	     62.53694105	      0.50447035	     11.91392480
      4.16000000	      0.04248646	     -1.25012706	     97.26722867	      0.18835883	      0.62950113	      0.71982322	      7.05466458	     -1.89247754	    -24.20716614	     13.40082311	      0.23388849	     18.43334951	     11.74894893	      0.00000000	     10.56325372	      0.93977367	     -6.15196532	     14.34116786	      0.25030060	     16.81237272	      2.97492474	      0.00000000	      0.11012800	      0.00189149	     -0.62967507	      0.20451871	      0.00251568	     -0.66902977	      0.18092929	      0.00459897	     -0.66902977	      0.12586529	      0.00459897	     -0.55096569	      0.10226486	      0.00385713	     -0.51161100	      0.06292714	      0.00292992	     -0.47225631	      0.78663330	      0.02139693	     -3.50206386	      0.00000000	      0.00000000	     22.98617060	      2.87442222	     -2.53659308	     11.44295588	     -6.45633411	     48.70660387	     37.46666663	     62.44137445	     -3.41023232	      4.97390969	     11.63340977	     -6.02244054	     52.37738490	     39.57465061	     64.37637063	     -0.05451262	      8.30676990
      4.18000000	      0.27232043	     -1.20791378	     97.32761311	      0.18772455	      0.62823547	      0.71922006	      6.94555281	     -1.67561257	    -24.34730248	     13.40088816	      0.23388962	     18.50106436	     11.63340495	      0.00000000	     10.61473340	      0.70162766	     -6.21840323	     14.58487722	      0.25455413	     17.43590285	      3.10971383	      0.00000000	      0.10010900	      0.04124204	     -0.61758632	      0.18591242	      0.05485191	     -0.65618546	      0.16446907	      0.10027589	     -0.65618546	      0.11441457	      0.10027589	     -0.54038803	      0.09296122	      0.08410076	     -0.50178888	      0.05720228	      0.06388392	     -0.46318974	      0.71506856	      0.46653818	     -3.43482983	      0.00000000	      0.00000000	     23.18460444	      3.30736460	     -2.30619359	     12.81224245	     -6.60384583	     49.80895823	     34.13433516	     63.59424380	     -4.37733555	      4.78663281	     11.65068993	     -5.52006626	     52.59856001	     37.32946193	     65.05807427	     -1.60066367	      6.04203711
      4.20000000	      0.52114692	     -1.08934500	     97.45968192	      0.18694723	      0.62699773	      0.71825056	      6.67601319	     -1.42135823	    -24.60116944	     13.27834045	      0.23175076	     18.57276339	     11.63800702	      0.00000000	     10.55163036	      0.45594648	     -6.10459648	     14.77076314	      0.25779845	     18.17073998	      3.20566277	      0.00000000	      0.08363639	      0.08457085	     -0.62129549	      0.15532114	      0.11247923	     -0.66012646	      0.13740623	      0.20562556	     -0.66012646	      0.09558803	      0.20562556	     -0.54363355	      0.07766475	      0.17245687	     -0.50480258	      0.04778983	      0.13100024	     -0.46597162	      0.59740639	      0.95668233	     -3.45545912	      0.00000000	      0.00000000	     23.42814190	      3.51544503	     -2.02366698	     14.04815569	     -6.88924376	     51.48798037	     30.89383836	     65.73312270	     -5.86638224	      4.20145842	     11.53354870	     -5.15073515	     52.60509894	     35.01865500	     65.49845204	     -3.63798172	      3.76292496
      4.22000000	      0.68946007	     -0.92567588	     97.58275650	      0.18641997	      0.62587223	      0.71683602	      6.32309648	     -1.22977652	    -24.88322438	     13.13645125	      0.22927433	     18.75488711	     11.85728878	      0.00000000	     10.36840137	      0.27466382	     -5.93517542	     14.89274228	      0.25992739	     18.77719746	      3.22353591	      0.00000000	      0.06167615	      0.11389021	     -0.62725439	      0.11453877	      0.15147398	     -0.66645778	      0.10132774	      0.27691266	     -0.66645778	      0.07048967	      0.27691266	     -0.54884759	      0.05727247	      0.23224492	     -0.50964419	      0.03524175	      0.17641594	     -0.47044079	      0.44054655	      1.28834884	     -3.48860071	      0.00000000	      0.00000000	     23.85162702	      3.54089384	     -2.13368541	     14.97816614	     -7.13478931	     53.56578221	     27.77125604	     68.38053349	     -7.58131746	      3.69030954	     11.27888421	     -5.01054713	     52.33126602	     32.75550359	     65.97471493	     -6.01405766	      1.83041871
      4.24000000	      0.82618488	     -0.79744008	     97.73629546	      0.18600717	      0.62484988	      0.71525094	      5.96069567	     -1.05704988	    -25.35376017	     12.88850456	      0.22494684	     18.92635506	     12.30289675	      0.00000000	     10.13749759	      0.13647500	     -5.79787456	     14.86165130	      0.25938475	     19.14913660	      3.20010574	      0.00000000	      0.04481656	      0.13796237	     -0.66450886	      0.08322883	      0.18348995	     -0.70604066	      0.07362912	      0.33544171	     -0.70604066	      0.05122084	      0.33544171	     -0.58144525	      0.04161665	      0.28133287	     -0.53991345	      0.02560818	      0.21370371	     -0.49838164	      0.32012018	      1.56065792	     -3.69579891	      0.00000000	      0.00000000	     24.30451069	      3.46782219	     -2.28241764	     15.63605961	     -7.30793129	     56.43425696	     24.69570738	     71.39845927	     -9.58364272	      3.00388596	     11.02503057	     -5.09814562	     52.13452551	     30.54773837	     66.88256597	     -8.42546485	      0.70567512
      4.26000000	      0.94250936	     -0.60116744	     97.83332198	      0.18576415	      0.62405745	      0.71328206	      5.51261043	     -0.87828174	    -25.64123760	     12.59800410	      0.21987665	     19.06919480	     12.78071258	      0.00000000	      9.75904943	      0.00462706	     -5.58115528	     14.74855098	      0.25741077	     19.43087455	      3.21040398	      0.00000000	      0.02140371	      0.15796140	     -0.70865437	      0.03974882	      0.21008866	     -0.75294527	      0.03516415	      0.38406734	     -0.75294527	      0.02446230	      0.38406734	     -0.62007258	      0.01987548	      0.32211488	     -0.57578168	      0.01223008	      0.24468220	     -0.53149078	      0.15288453	      1.78689091	     -3.94132302	      0.00000000	      0.00000000	     24.63733064	      3.41488206	     -2.57990814	     15.77223397	     -7.40692856	     59.27377204	     21.85940710	     72.87429221	    -11.20721782	      2.37841079	     10.72546410	     -5.33978758	     52.09324393	     28.41567513	     68.41889345	    -10.54119239	      0.42798248
      4.28000000	      0.39231257	     -0.47922226	     97.83231221	      0.18731422	      0.62413741	      0.71046635	      5.01626889	     -1.23770783	    -25.45931512	     12.22531329	      0.21337197	     19.17674412	     12.75093336	      0.00000000	      9.04842207	      0.48174147	     -5.59246912	     14.07990970	      0.24574078	     19.14157832	      3.43604566	      0.00000000	      0.01223994	      0.06996099	     -0.79046771	      0.02273080	      0.09304811	     -0.83987194	      0.02010900	      0.17010314	     -0.83987194	      0.01398903	      0.17010314	     -0.69165924	      0.01136601	      0.14266444	     -0.64225501	      0.00699390	      0.10836957	     -0.59285078	      0.08742869	      0.79141268	     -4.39634425	      0.00000000	      0.00000000	     24.49659031	      4.04510036	     -3.26961383	     19.62916610	     -1.71881558	    143.24393742	      4.64684483	      2.46821337	     -6.38914903	     -6.79267155	      9.74188544	     -6.23250935	     49.60636936	     26.88687603	     73.94674285	    -11.56544445	      1.80369135
      4.30000000	      0.87142958	     -0.24021060	     97.64755568	      0.18646650	      0.62339799	      0.70813034	      4.55147176	     -0.64701153	    -25.13396856	     11.76986213	      0.20542285	     18.95297657	     12.71247353	      0.00000000	      8.54370105	      0.01309596	     -5.31688114	     13.80767942	      0.24098947	     19.49776566	      3.49650990	      0.00000000	     -0.01579887	      0.15758136	     -0.82037990	     -0.02934008	      0.20958321	     -0.87165364	     -0.02595596	      0.38314331	     -0.87165364	     -0.01805653	      0.38314331	     -0.71783241	     -0.01467083	      0.32133991	     -0.66655867	     -0.00902747	      0.24409352	     -0.61528492	     -0.11284973	      1.78259184	     -4.56270687	      0.00000000	      0.00000000	     24.71237440	      3.87938602	     -2.78725409	     18.64766701	     -3.28870379	    140.70766505	      5.75360602	      2.37889479	     -7.04892067	     -5.32087247	      9.58102604	     -6.38757538	     51.37462895	     24.58798184	     75.76754286	    -12.65040233	      2.17755590
      4.32000000	      1.32110238	     -0.05089081	     97.63965050	      0.18539115	      0.62258410	      0.70578014	      4.14351866	     -0.04991184	    -24.37618996	     11.30003375	      0.19722279	     18.72763248	     11.85357289	      0.00000000	      8.08124609	     -0.36585236	     -4.77905511	     13.46810269	      0.23506274	     19.80308760	      3.28789717	      0.00000000	     -0.03253117	      0.24105007	     -0.83812014	     -0.06041363	      0.32059659	     -0.89050265	     -0.05344546	      0.58608913	     -0.89050265	     -0.03717987	      0.58608913	     -0.73335513	     -0.03020844	      0.49154930	     -0.68097262	     -0.01858831	      0.37338655	     -0.62859011	     -0.23236688	      2.72680656	     -4.66137281	      0.00000000	      0.00000000	     24.92170450	      3.65500629	     -2.61355460	     17.19681600	     -5.33860514	    132.98788902	      7.42241621	      3.23309438	     -6.98643501	     -4.87122410	      9.64789882	     -6.60034204	     55.14633134	     22.14737508	     77.42577821	    -13.70249265	      2.37451633
      4.34000000	      2.49921593	      0.04600304	     97.22472163	      0.18258279	      0.62247698	      0.70312236	      3.81870209	      1.24196977	    -23.12977439	     10.52794393	      0.18374729	     17.87358386	     10.95573360	      0.00000000	      7.53189980	     -1.27837784	     -3.53125450	     12.65967474	      0.22095301	     19.85847537	      1.73992518	      0.00000000	     -0.01274140	      0.46289979	     -0.85578909	     -0.02366205	      0.61565672	     -0.90927591	     -0.02093284	      1.12549456	     -0.90927591	     -0.01456214	      1.12549456	     -0.74881545	     -0.01183166	      0.94394526	     -0.69532863	     -0.00728044	      0.71703178	     -0.64184182	     -0.09101054	      5.23641504	     -4.75964217	      0.00000000	      0.00000000	     24.80412517	      2.75145462	     -0.43841030	     15.66794974	     -7.94058728	    128.72650512	      8.43687171	      4.26289291	     -6.84216194	     -4.07208551	     13.21496558	     -0.50411886	    152.10849498	      1.68621513	      2.12284129	     -8.36090774	     -5.95235493
